<svg xmlns="http://www.w3.org/2000/svg" viewBox="0 0 131.8 34.53"><defs><style>.cls-1{fill:#fff;fill-rule:evenodd;}</style></defs><title>Asset 1</title><g id="Layer_2" data-name="Layer 2"><g id="Layer_1-2" data-name="Layer 1"><g id="Nav-Bar"><g id="Logo"><path id="Drone.ai" class="cls-1" d="M44.48,24V9.8h5.16a7.76,7.76,0,0,1,3,.56,6.28,6.28,0,0,1,2.19,1.52,6.2,6.2,0,0,1,1.32,2.25,8.57,8.57,0,0,1,.44,2.75,8.22,8.22,0,0,1-.49,2.93,6.17,6.17,0,0,1-3.62,3.68,7.79,7.79,0,0,1-2.89.51Zm9.38-7.12A5.93,5.93,0,0,0,53.58,15a4.26,4.26,0,0,0-.82-1.48,3.7,3.7,0,0,0-1.33-1,4.43,4.43,0,0,0-1.79-.34h-2.4v9.36h2.4a4.33,4.33,0,0,0,1.81-.36,3.65,3.65,0,0,0,1.32-1,4.55,4.55,0,0,0,.81-1.49A5.85,5.85,0,0,0,53.86,16.88Zm12.52-1a5.25,5.25,0,0,0-2.18.47,2.75,2.75,0,0,0-1.38,1.35V24H60.14V13.52H62.6v2.24a5.17,5.17,0,0,1,.66-1,4.8,4.8,0,0,1,.82-.75,3.74,3.74,0,0,1,.89-.49,2.53,2.53,0,0,1,.87-.17h.33l.21,0ZM73.8,24.2a5.82,5.82,0,0,1-2.3-.44,5.09,5.09,0,0,1-1.73-1.19,5.29,5.29,0,0,1-1.09-1.73,5.71,5.71,0,0,1-.38-2.06,5.77,5.77,0,0,1,.38-2.08A5.29,5.29,0,0,1,69.77,15a5.09,5.09,0,0,1,1.73-1.19,5.82,5.82,0,0,1,2.3-.44,5.74,5.74,0,0,1,2.29.44A5.14,5.14,0,0,1,77.81,15,5.29,5.29,0,0,1,78.9,16.7a5.77,5.77,0,0,1,.38,2.08,5.71,5.71,0,0,1-.38,2.06,5.26,5.26,0,0,1-1.08,1.73,5,5,0,0,1-1.72,1.19A5.82,5.82,0,0,1,73.8,24.2Zm-2.74-5.42a3.64,3.64,0,0,0,.21,1.27,3,3,0,0,0,.58,1,2.61,2.61,0,0,0,.87.65,2.65,2.65,0,0,0,2.16,0,2.61,2.61,0,0,0,.87-.65,3,3,0,0,0,.58-1,3.95,3.95,0,0,0,0-2.54,3,3,0,0,0-.58-1,2.61,2.61,0,0,0-.87-.65,2.58,2.58,0,0,0-1.08-.23,2.44,2.44,0,0,0-1.08.24,2.79,2.79,0,0,0-.87.66,3,3,0,0,0-.58,1A3.7,3.7,0,0,0,71.06,18.78ZM92.42,24H89.74V18.12a3.09,3.09,0,0,0-.44-1.84,1.43,1.43,0,0,0-1.22-.58,2.21,2.21,0,0,0-.82.16,3.28,3.28,0,0,0-.79.45,3.38,3.38,0,0,0-.67.69,2.69,2.69,0,0,0-.44.88V24H82.68V13.52H85.1v1.94a4,4,0,0,1,1.68-1.56,5.42,5.42,0,0,1,2.48-.56,3.16,3.16,0,0,1,1.6.36,2.62,2.62,0,0,1,1,.94A4,4,0,0,1,92.29,16a8.28,8.28,0,0,1,.13,1.5Zm8.8.2a5.76,5.76,0,0,1-2.28-.43A5.33,5.33,0,0,1,97.2,22.6a5.19,5.19,0,0,1-1.11-1.72,5.51,5.51,0,0,1-.39-2.06,5.9,5.9,0,0,1,.38-2.11A5.1,5.1,0,0,1,97.18,15a5.17,5.17,0,0,1,1.75-1.19,5.91,5.91,0,0,1,2.31-.44,5.74,5.74,0,0,1,2.29.44A5.27,5.27,0,0,1,105.25,15a5.12,5.12,0,0,1,1.08,1.72,5.63,5.63,0,0,1,.37,2c0,.17,0,.34,0,.5a2.07,2.07,0,0,1,0,.4h-8.1a3.13,3.13,0,0,0,.3,1.1,2.82,2.82,0,0,0,.62.82,2.61,2.61,0,0,0,.86.52,2.81,2.81,0,0,0,1,.18,3.09,3.09,0,0,0,1.51-.39,2.05,2.05,0,0,0,1-1l2.3.64a4.66,4.66,0,0,1-1.85,2A5.78,5.78,0,0,1,101.22,24.2Zm2.72-6.32a2.8,2.8,0,0,0-.87-1.89,2.67,2.67,0,0,0-1.87-.71,2.59,2.59,0,0,0-1,.19,2.67,2.67,0,0,0-.83.53,2.73,2.73,0,0,0-.59.82,3,3,0,0,0-.27,1.06ZM109.88,24V21.12h2.2V24Zm9,.2a3.89,3.89,0,0,1-1.42-.25,3.47,3.47,0,0,1-1.14-.7,3.26,3.26,0,0,1-.75-1.05,3.18,3.18,0,0,1-.27-1.32,2.92,2.92,0,0,1,.33-1.37,3.15,3.15,0,0,1,.92-1.07,4.64,4.64,0,0,1,1.41-.69,6.07,6.07,0,0,1,1.8-.25,7.76,7.76,0,0,1,1.37.12,5.39,5.39,0,0,1,1.19.34v-.6a2.11,2.11,0,0,0-.59-1.6A2.47,2.47,0,0,0,120,15.2a4.62,4.62,0,0,0-1.64.3,7.55,7.55,0,0,0-1.64.88l-.82-1.7a7.77,7.77,0,0,1,4.36-1.34,5.1,5.1,0,0,1,3.51,1.11A4.08,4.08,0,0,1,125,17.66v3.26a.94.94,0,0,0,.15.6.64.64,0,0,0,.49.2V24a6.23,6.23,0,0,1-1.18.14,1.76,1.76,0,0,1-1.17-.34,1.51,1.51,0,0,1-.51-.9l-.06-.58a4.67,4.67,0,0,1-1.7,1.4A4.89,4.89,0,0,1,118.9,24.2Zm.76-2A3.52,3.52,0,0,0,121,22a2.31,2.31,0,0,0,1-.64,1,1,0,0,0,.44-.76V19.4a6.32,6.32,0,0,0-1-.29,5.82,5.82,0,0,0-1.08-.11,2.89,2.89,0,0,0-1.7.47,1.41,1.41,0,0,0-.66,1.19,1.43,1.43,0,0,0,.52,1.13A1.89,1.89,0,0,0,119.66,22.24ZM129.12,24V13.52h2.68V24Zm0-11.94V9.4h2.68v2.66Z"/><path id="Combined-Shape" class="cls-1" d="M34.24,20.67,20.72,34.19A17.3,17.3,0,0,0,34.24,20.67Zm-.45-8.61a16.86,16.86,0,0,1,.73,3.78L15.83,34.53H11.32ZM30.58,6.18a17.58,17.58,0,0,1,1.84,2.67L6.74,34.53H2.23Zm-5-4.11a17.88,17.88,0,0,1,2.69,1.82L0,32.18V27.67ZM18.59,0a17.52,17.52,0,0,1,3.79.71L0,23.09V18.58ZM13.68.33A17.32,17.32,0,0,0,.38,13.62Z"/></g></g></g></g></svg>